<mxfile host="app.diagrams.net" agent="Mozilla/5.0 (Windows NT 10.0; Win64; x64) AppleWebKit/537.36 (KHTML, like Gecko) Chrome/127.0.0.0 Safari/537.36" version="24.7.7">
  <diagram name="Page-1" id="7e0a89b8-554c-2b80-1dc8-d5c74ca68de4">
    <mxGraphModel dx="988" dy="530" grid="1" gridSize="10" guides="1" tooltips="1" connect="1" arrows="1" fold="1" page="1" pageScale="1" pageWidth="1100" pageHeight="850" background="none" math="0" shadow="0">
      <root>
        <mxCell id="0" />
        <mxCell id="1" parent="0" />
        <mxCell id="MxOs55ggKge5NV0dwggh-42" style="edgeStyle=orthogonalEdgeStyle;rounded=0;orthogonalLoop=1;jettySize=auto;html=1;exitX=0;exitY=0.6;exitDx=0;exitDy=0;labelPosition=center;verticalLabelPosition=top;align=center;verticalAlign=bottom;endArrow=classicThin;endFill=1;strokeWidth=1;" edge="1" parent="1" source="MxOs55ggKge5NV0dwggh-30" target="MxOs55ggKge5NV0dwggh-31">
          <mxGeometry relative="1" as="geometry" />
        </mxCell>
        <mxCell id="MxOs55ggKge5NV0dwggh-44" value="POT" style="edgeLabel;html=1;align=center;verticalAlign=middle;resizable=0;points=[];" vertex="1" connectable="0" parent="MxOs55ggKge5NV0dwggh-42">
          <mxGeometry x="-0.265" y="-1" relative="1" as="geometry">
            <mxPoint x="-3" y="-9" as="offset" />
          </mxGeometry>
        </mxCell>
        <mxCell id="MxOs55ggKge5NV0dwggh-45" style="edgeStyle=orthogonalEdgeStyle;rounded=0;orthogonalLoop=1;jettySize=auto;html=1;exitX=0;exitY=0.66667;exitDx=0;exitDy=0;entryX=0.467;entryY=0.833;entryDx=0;entryDy=0;entryPerimeter=0;endArrow=classicThin;endFill=1;" edge="1" parent="1" source="MxOs55ggKge5NV0dwggh-30" target="MxOs55ggKge5NV0dwggh-37">
          <mxGeometry relative="1" as="geometry">
            <mxPoint x="440" y="350.03000000000003" as="targetPoint" />
            <Array as="points">
              <mxPoint x="600" y="327.03000000000003" />
              <mxPoint x="600" y="347.03000000000003" />
              <mxPoint x="500" y="347.03000000000003" />
              <mxPoint x="500" y="312.03000000000003" />
            </Array>
          </mxGeometry>
        </mxCell>
        <mxCell id="MxOs55ggKge5NV0dwggh-51" value="POT" style="edgeLabel;html=1;align=center;verticalAlign=middle;resizable=0;points=[];" vertex="1" connectable="0" parent="MxOs55ggKge5NV0dwggh-45">
          <mxGeometry x="-0.1093" y="-1" relative="1" as="geometry">
            <mxPoint x="-57" y="-45" as="offset" />
          </mxGeometry>
        </mxCell>
        <mxCell id="MxOs55ggKge5NV0dwggh-30" value="" style="shape=stencil(tZhNb+IwEIZ/ja+VHZOkHCMoq710pWpZ9RrABavBRsb9uvS3r41TRBJn6K48CEXyTPI+My+O40D47LirD4JkdEf4nGRZmVN3dOO3MGa0Hat6L0KoMi9SaRda+qPP1ceDWNuQfa2NrFeNCJmjNfpZvMmNbfWl2gkjrc/yO0Ird47/8tlaK+VEpFbHTuYi78Rqqdy19D2I0Zs8YD7acRgdHGEvrDBtCyFKssV/C7NUwqxb7w0tiqLEEmfcfbDEMzRhTEs4piUTNGFMS3JMSwo0YUxLSkxLbtGEMS2ZprSEYs2SgXBKS/riSWdJXzzZLBkIY1ryz7OEz1xk7NHPZ6t6/bw1+kVthleN5p60EZHEOS2bJmxLgGaN38+MtUmiG6T+BmpM+irbinfPducFxfxPEGyLyaPV1I3cqhBZC+VtP4VfL+JWH+DK+uDqYb78ef/LhZb+mI0ZcrbgAtaIJzssYS83m6+t4XerYLyDPsM+unZcUIzc7lLBMxAe6zwh/ZMxGI/b/CejID5D7n4K03GbvwXhHLf1EoYj/+wFSJ8g/+o5TMftfXJlrcFt/cpKh9s6vNIVuK3/fvTxBSXTBakYmfpr4bWvwHXjoVeQPw1eDUtch6ou/fpdke4JXDEAHbsnEqIzCI3bNQfQsdshIXoCoXG7zgF0bIqnQ/+4n3fYvY1uGel7bKu70tbqfRx/enkYvCOcouG/0FPgLw==);whiteSpace=wrap;html=1;" vertex="1" parent="1">
          <mxGeometry x="620" y="160.03000000000003" width="120" height="250" as="geometry" />
        </mxCell>
        <mxCell id="MxOs55ggKge5NV0dwggh-54" style="edgeStyle=orthogonalEdgeStyle;rounded=0;orthogonalLoop=1;jettySize=auto;html=1;exitX=1;exitY=0.5;exitDx=0;exitDy=0;exitPerimeter=0;entryX=0.5;entryY=0;entryDx=0;entryDy=0;endArrow=none;endFill=0;" edge="1" parent="1" source="MxOs55ggKge5NV0dwggh-31" target="MxOs55ggKge5NV0dwggh-30">
          <mxGeometry relative="1" as="geometry" />
        </mxCell>
        <mxCell id="MxOs55ggKge5NV0dwggh-31" value="" style="verticalLabelPosition=bottom;shadow=0;dashed=0;align=center;html=1;verticalAlign=top;strokeWidth=1;shape=mxgraph.electrical.resistors.resistor_2;rounded=1;comic=0;labelBackgroundColor=none;fontFamily=Verdana;fontSize=12;rotation=-90;" vertex="1" parent="1">
          <mxGeometry x="552" y="305.03000000000003" width="50" height="10" as="geometry" />
        </mxCell>
        <mxCell id="MxOs55ggKge5NV0dwggh-57" style="edgeStyle=orthogonalEdgeStyle;rounded=0;orthogonalLoop=1;jettySize=auto;html=1;exitX=0;exitY=0.5;exitDx=0;exitDy=0;exitPerimeter=0;entryX=0.5;entryY=1;entryDx=0;entryDy=0;endArrow=none;endFill=0;jumpStyle=arc;" edge="1" parent="1" source="MxOs55ggKge5NV0dwggh-31" target="MxOs55ggKge5NV0dwggh-30">
          <mxGeometry relative="1" as="geometry">
            <Array as="points">
              <mxPoint x="577" y="430" />
              <mxPoint x="680" y="430" />
            </Array>
          </mxGeometry>
        </mxCell>
        <mxCell id="MxOs55ggKge5NV0dwggh-34" style="edgeStyle=orthogonalEdgeStyle;rounded=0;orthogonalLoop=1;jettySize=auto;html=1;exitX=0;exitY=0.5;exitDx=0;exitDy=0;exitPerimeter=0;entryX=1;entryY=0.5;entryDx=0;entryDy=0;entryPerimeter=0;endArrow=none;endFill=0;" edge="1" parent="1" source="MxOs55ggKge5NV0dwggh-31" target="MxOs55ggKge5NV0dwggh-33">
          <mxGeometry relative="1" as="geometry" />
        </mxCell>
        <mxCell id="MxOs55ggKge5NV0dwggh-36" style="edgeStyle=orthogonalEdgeStyle;rounded=0;orthogonalLoop=1;jettySize=auto;html=1;exitX=1;exitY=0.5;exitDx=0;exitDy=0;exitPerimeter=0;entryX=0;entryY=0.5;entryDx=0;entryDy=0;entryPerimeter=0;endArrow=none;endFill=0;" edge="1" parent="1" source="MxOs55ggKge5NV0dwggh-31" target="MxOs55ggKge5NV0dwggh-33">
          <mxGeometry relative="1" as="geometry" />
        </mxCell>
        <mxCell id="MxOs55ggKge5NV0dwggh-33" value="100 μF" style="pointerEvents=1;verticalLabelPosition=bottom;shadow=0;dashed=0;align=center;verticalAlign=top;shape=mxgraph.electrical.capacitors.capacitor_3;rotation=90;html=1;labelPosition=center;" vertex="1" parent="1">
          <mxGeometry x="520" y="300.03000000000003" width="40" height="20" as="geometry" />
        </mxCell>
        <mxCell id="MxOs55ggKge5NV0dwggh-55" style="edgeStyle=orthogonalEdgeStyle;rounded=0;orthogonalLoop=1;jettySize=auto;html=1;exitX=1;exitY=0.5;exitDx=0;exitDy=0;exitPerimeter=0;entryX=0.5;entryY=0;entryDx=0;entryDy=0;endArrow=none;endFill=0;" edge="1" parent="1" source="MxOs55ggKge5NV0dwggh-37" target="MxOs55ggKge5NV0dwggh-30">
          <mxGeometry relative="1" as="geometry" />
        </mxCell>
        <mxCell id="MxOs55ggKge5NV0dwggh-58" style="edgeStyle=orthogonalEdgeStyle;rounded=0;orthogonalLoop=1;jettySize=auto;html=1;exitX=0;exitY=0.5;exitDx=0;exitDy=0;exitPerimeter=0;entryX=0.5;entryY=1;entryDx=0;entryDy=0;endArrow=none;endFill=0;" edge="1" parent="1" source="MxOs55ggKge5NV0dwggh-37" target="MxOs55ggKge5NV0dwggh-30">
          <mxGeometry relative="1" as="geometry">
            <Array as="points">
              <mxPoint x="477" y="430" />
              <mxPoint x="680" y="430" />
            </Array>
          </mxGeometry>
        </mxCell>
        <mxCell id="MxOs55ggKge5NV0dwggh-37" value="&lt;div&gt;&lt;br&gt;&lt;/div&gt;&lt;div&gt;&lt;br&gt;&lt;/div&gt;" style="verticalLabelPosition=bottom;shadow=0;dashed=0;align=center;html=1;verticalAlign=top;strokeWidth=1;shape=mxgraph.electrical.resistors.resistor_2;rounded=1;comic=0;labelBackgroundColor=none;fontFamily=Verdana;fontSize=12;rotation=-90;" vertex="1" parent="1">
          <mxGeometry x="452" y="305.03000000000003" width="50" height="10" as="geometry" />
        </mxCell>
        <mxCell id="MxOs55ggKge5NV0dwggh-38" style="edgeStyle=orthogonalEdgeStyle;rounded=0;orthogonalLoop=1;jettySize=auto;html=1;exitX=0;exitY=0.5;exitDx=0;exitDy=0;exitPerimeter=0;entryX=1;entryY=0.5;entryDx=0;entryDy=0;entryPerimeter=0;endArrow=none;endFill=0;" edge="1" parent="1" source="MxOs55ggKge5NV0dwggh-37" target="MxOs55ggKge5NV0dwggh-40">
          <mxGeometry relative="1" as="geometry" />
        </mxCell>
        <mxCell id="MxOs55ggKge5NV0dwggh-39" style="edgeStyle=orthogonalEdgeStyle;rounded=0;orthogonalLoop=1;jettySize=auto;html=1;exitX=1;exitY=0.5;exitDx=0;exitDy=0;exitPerimeter=0;entryX=0;entryY=0.5;entryDx=0;entryDy=0;entryPerimeter=0;endArrow=none;endFill=0;" edge="1" parent="1" source="MxOs55ggKge5NV0dwggh-37" target="MxOs55ggKge5NV0dwggh-40">
          <mxGeometry relative="1" as="geometry" />
        </mxCell>
        <mxCell id="MxOs55ggKge5NV0dwggh-40" value="100 μF" style="pointerEvents=1;verticalLabelPosition=bottom;shadow=0;dashed=0;align=center;verticalAlign=top;shape=mxgraph.electrical.capacitors.capacitor_3;rotation=90;html=1;labelPosition=center;" vertex="1" parent="1">
          <mxGeometry x="420" y="300.03000000000003" width="40" height="20" as="geometry" />
        </mxCell>
        <mxCell id="MxOs55ggKge5NV0dwggh-56" style="edgeStyle=orthogonalEdgeStyle;rounded=0;orthogonalLoop=1;jettySize=auto;html=1;exitX=1;exitY=0.5;exitDx=0;exitDy=0;exitPerimeter=0;entryX=0.5;entryY=0;entryDx=0;entryDy=0;endArrow=none;endFill=0;" edge="1" parent="1" source="MxOs55ggKge5NV0dwggh-46" target="MxOs55ggKge5NV0dwggh-30">
          <mxGeometry relative="1" as="geometry" />
        </mxCell>
        <mxCell id="MxOs55ggKge5NV0dwggh-59" style="edgeStyle=orthogonalEdgeStyle;rounded=0;orthogonalLoop=1;jettySize=auto;html=1;exitX=0;exitY=0.5;exitDx=0;exitDy=0;exitPerimeter=0;entryX=0.5;entryY=1;entryDx=0;entryDy=0;endArrow=none;endFill=0;" edge="1" parent="1" source="MxOs55ggKge5NV0dwggh-46" target="MxOs55ggKge5NV0dwggh-30">
          <mxGeometry relative="1" as="geometry">
            <Array as="points">
              <mxPoint x="377" y="430" />
              <mxPoint x="680" y="430" />
            </Array>
          </mxGeometry>
        </mxCell>
        <mxCell id="MxOs55ggKge5NV0dwggh-46" value="&lt;div&gt;&lt;br&gt;&lt;/div&gt;&lt;div&gt;&lt;br&gt;&lt;/div&gt;" style="verticalLabelPosition=bottom;shadow=0;dashed=0;align=center;html=1;verticalAlign=top;strokeWidth=1;shape=mxgraph.electrical.resistors.resistor_2;rounded=1;comic=0;labelBackgroundColor=none;fontFamily=Verdana;fontSize=12;rotation=-90;" vertex="1" parent="1">
          <mxGeometry x="352" y="305.03000000000003" width="50" height="10" as="geometry" />
        </mxCell>
        <mxCell id="MxOs55ggKge5NV0dwggh-47" style="edgeStyle=orthogonalEdgeStyle;rounded=0;orthogonalLoop=1;jettySize=auto;html=1;exitX=0;exitY=0.5;exitDx=0;exitDy=0;exitPerimeter=0;entryX=1;entryY=0.5;entryDx=0;entryDy=0;entryPerimeter=0;endArrow=none;endFill=0;" edge="1" source="MxOs55ggKge5NV0dwggh-46" target="MxOs55ggKge5NV0dwggh-49" parent="1">
          <mxGeometry relative="1" as="geometry" />
        </mxCell>
        <mxCell id="MxOs55ggKge5NV0dwggh-48" style="edgeStyle=orthogonalEdgeStyle;rounded=0;orthogonalLoop=1;jettySize=auto;html=1;exitX=1;exitY=0.5;exitDx=0;exitDy=0;exitPerimeter=0;entryX=0;entryY=0.5;entryDx=0;entryDy=0;entryPerimeter=0;endArrow=none;endFill=0;" edge="1" source="MxOs55ggKge5NV0dwggh-46" target="MxOs55ggKge5NV0dwggh-49" parent="1">
          <mxGeometry relative="1" as="geometry" />
        </mxCell>
        <mxCell id="MxOs55ggKge5NV0dwggh-50" style="edgeStyle=orthogonalEdgeStyle;rounded=0;orthogonalLoop=1;jettySize=auto;html=1;exitX=0;exitY=0.73333;exitDx=0;exitDy=0;entryX=0.5;entryY=0.8;entryDx=0;entryDy=0;entryPerimeter=0;endArrow=classicThin;endFill=1;jumpStyle=arc;" edge="1" parent="1" source="MxOs55ggKge5NV0dwggh-30" target="MxOs55ggKge5NV0dwggh-46">
          <mxGeometry relative="1" as="geometry">
            <Array as="points">
              <mxPoint x="610" y="343.03000000000003" />
              <mxPoint x="610" y="360.0300000000001" />
              <mxPoint x="400" y="360.0300000000001" />
              <mxPoint x="400" y="310.03000000000003" />
            </Array>
          </mxGeometry>
        </mxCell>
        <mxCell id="MxOs55ggKge5NV0dwggh-52" value="POT" style="edgeLabel;html=1;align=center;verticalAlign=middle;resizable=0;points=[];" vertex="1" connectable="0" parent="MxOs55ggKge5NV0dwggh-50">
          <mxGeometry x="-0.2368" relative="1" as="geometry">
            <mxPoint x="-124" y="-60" as="offset" />
          </mxGeometry>
        </mxCell>
        <mxCell id="MxOs55ggKge5NV0dwggh-49" value="100 μF" style="pointerEvents=1;verticalLabelPosition=bottom;shadow=0;dashed=0;align=center;verticalAlign=top;shape=mxgraph.electrical.capacitors.capacitor_3;rotation=90;html=1;labelPosition=center;" vertex="1" parent="1">
          <mxGeometry x="320" y="300.03000000000003" width="40" height="20" as="geometry" />
        </mxCell>
        <mxCell id="MxOs55ggKge5NV0dwggh-83" style="edgeStyle=orthogonalEdgeStyle;rounded=0;orthogonalLoop=1;jettySize=auto;html=1;exitX=1;exitY=0.57;exitDx=0;exitDy=0;exitPerimeter=0;endArrow=none;endFill=0;" edge="1" parent="1" source="MxOs55ggKge5NV0dwggh-63">
          <mxGeometry relative="1" as="geometry">
            <mxPoint x="860" y="370" as="targetPoint" />
            <Array as="points">
              <mxPoint x="833" y="370" />
            </Array>
          </mxGeometry>
        </mxCell>
        <mxCell id="MxOs55ggKge5NV0dwggh-63" value="" style="verticalLabelPosition=bottom;shadow=0;dashed=0;align=center;html=1;verticalAlign=top;shape=mxgraph.electrical.opto_electronics.led_2;pointerEvents=1;rotation=90;" vertex="1" parent="1">
          <mxGeometry x="819" y="322.03" width="30" height="20.03" as="geometry" />
        </mxCell>
        <mxCell id="MxOs55ggKge5NV0dwggh-66" value="" style="rounded=1;whiteSpace=wrap;html=1;dashed=1;dashPattern=1 1;fillColor=none;perimeterSpacing=0;arcSize=49;" vertex="1" parent="1">
          <mxGeometry x="810" y="315.03" width="110" height="60" as="geometry" />
        </mxCell>
        <mxCell id="MxOs55ggKge5NV0dwggh-69" value="" style="verticalLabelPosition=bottom;shadow=0;dashed=0;align=center;html=1;verticalAlign=top;strokeWidth=1;shape=mxgraph.electrical.resistors.resistor_2;rounded=1;comic=0;labelBackgroundColor=none;fontFamily=Verdana;fontSize=12;rotation=-90;" vertex="1" parent="1">
          <mxGeometry x="807" y="280" width="50" height="10" as="geometry" />
        </mxCell>
        <mxCell id="MxOs55ggKge5NV0dwggh-70" style="edgeStyle=orthogonalEdgeStyle;rounded=0;orthogonalLoop=1;jettySize=auto;html=1;exitX=0;exitY=0.5;exitDx=0;exitDy=0;exitPerimeter=0;entryX=0;entryY=0.57;entryDx=0;entryDy=0;entryPerimeter=0;endArrow=none;endFill=0;" edge="1" parent="1" source="MxOs55ggKge5NV0dwggh-69" target="MxOs55ggKge5NV0dwggh-63">
          <mxGeometry relative="1" as="geometry" />
        </mxCell>
        <mxCell id="MxOs55ggKge5NV0dwggh-71" style="edgeStyle=orthogonalEdgeStyle;rounded=0;orthogonalLoop=1;jettySize=auto;html=1;exitX=1;exitY=0.33333;exitDx=0;exitDy=0;entryX=1;entryY=0.5;entryDx=0;entryDy=0;entryPerimeter=0;endArrow=none;endFill=0;" edge="1" parent="1" source="MxOs55ggKge5NV0dwggh-30" target="MxOs55ggKge5NV0dwggh-69">
          <mxGeometry relative="1" as="geometry">
            <Array as="points">
              <mxPoint x="784" y="243" />
              <mxPoint x="832" y="243" />
            </Array>
          </mxGeometry>
        </mxCell>
        <mxCell id="MxOs55ggKge5NV0dwggh-82" style="edgeStyle=orthogonalEdgeStyle;rounded=0;orthogonalLoop=1;jettySize=auto;html=1;exitX=1;exitY=0.57;exitDx=0;exitDy=0;exitPerimeter=0;endArrow=none;endFill=0;" edge="1" parent="1" source="MxOs55ggKge5NV0dwggh-72">
          <mxGeometry relative="1" as="geometry">
            <mxPoint x="680" y="430" as="targetPoint" />
            <Array as="points">
              <mxPoint x="868" y="430" />
            </Array>
          </mxGeometry>
        </mxCell>
        <mxCell id="MxOs55ggKge5NV0dwggh-72" value="" style="verticalLabelPosition=bottom;shadow=0;dashed=0;align=center;html=1;verticalAlign=top;shape=mxgraph.electrical.opto_electronics.led_2;pointerEvents=1;rotation=90;" vertex="1" parent="1">
          <mxGeometry x="854" y="322.03" width="30" height="20.03" as="geometry" />
        </mxCell>
        <mxCell id="MxOs55ggKge5NV0dwggh-73" value="" style="verticalLabelPosition=bottom;shadow=0;dashed=0;align=center;html=1;verticalAlign=top;strokeWidth=1;shape=mxgraph.electrical.resistors.resistor_2;rounded=1;comic=0;labelBackgroundColor=none;fontFamily=Verdana;fontSize=12;rotation=-90;" vertex="1" parent="1">
          <mxGeometry x="842" y="280" width="50" height="10" as="geometry" />
        </mxCell>
        <mxCell id="MxOs55ggKge5NV0dwggh-74" style="edgeStyle=orthogonalEdgeStyle;rounded=0;orthogonalLoop=1;jettySize=auto;html=1;exitX=0;exitY=0.5;exitDx=0;exitDy=0;exitPerimeter=0;entryX=0;entryY=0.57;entryDx=0;entryDy=0;entryPerimeter=0;endArrow=none;endFill=0;" edge="1" source="MxOs55ggKge5NV0dwggh-73" target="MxOs55ggKge5NV0dwggh-72" parent="1">
          <mxGeometry relative="1" as="geometry" />
        </mxCell>
        <mxCell id="MxOs55ggKge5NV0dwggh-81" style="edgeStyle=orthogonalEdgeStyle;rounded=0;orthogonalLoop=1;jettySize=auto;html=1;exitX=1;exitY=0.57;exitDx=0;exitDy=0;exitPerimeter=0;endArrow=none;endFill=0;" edge="1" parent="1" source="MxOs55ggKge5NV0dwggh-75">
          <mxGeometry relative="1" as="geometry">
            <mxPoint x="860" y="370" as="targetPoint" />
            <Array as="points">
              <mxPoint x="900" y="370" />
            </Array>
          </mxGeometry>
        </mxCell>
        <mxCell id="MxOs55ggKge5NV0dwggh-75" value="" style="verticalLabelPosition=bottom;shadow=0;dashed=0;align=center;html=1;verticalAlign=top;shape=mxgraph.electrical.opto_electronics.led_2;pointerEvents=1;rotation=90;" vertex="1" parent="1">
          <mxGeometry x="886" y="322.03" width="30" height="20.03" as="geometry" />
        </mxCell>
        <mxCell id="MxOs55ggKge5NV0dwggh-76" value="" style="verticalLabelPosition=bottom;shadow=0;dashed=0;align=center;html=1;verticalAlign=top;strokeWidth=1;shape=mxgraph.electrical.resistors.resistor_2;rounded=1;comic=0;labelBackgroundColor=none;fontFamily=Verdana;fontSize=12;rotation=-90;" vertex="1" parent="1">
          <mxGeometry x="874" y="280" width="50" height="10" as="geometry" />
        </mxCell>
        <mxCell id="MxOs55ggKge5NV0dwggh-77" style="edgeStyle=orthogonalEdgeStyle;rounded=0;orthogonalLoop=1;jettySize=auto;html=1;exitX=0;exitY=0.5;exitDx=0;exitDy=0;exitPerimeter=0;entryX=0;entryY=0.57;entryDx=0;entryDy=0;entryPerimeter=0;endArrow=none;endFill=0;" edge="1" source="MxOs55ggKge5NV0dwggh-76" target="MxOs55ggKge5NV0dwggh-75" parent="1">
          <mxGeometry relative="1" as="geometry" />
        </mxCell>
        <mxCell id="MxOs55ggKge5NV0dwggh-78" style="edgeStyle=orthogonalEdgeStyle;rounded=0;orthogonalLoop=1;jettySize=auto;html=1;exitX=1;exitY=0.26667;exitDx=0;exitDy=0;entryX=1;entryY=0.5;entryDx=0;entryDy=0;entryPerimeter=0;endArrow=none;endFill=0;" edge="1" parent="1" source="MxOs55ggKge5NV0dwggh-30" target="MxOs55ggKge5NV0dwggh-73">
          <mxGeometry relative="1" as="geometry">
            <Array as="points">
              <mxPoint x="801" y="227" />
              <mxPoint x="867" y="227" />
            </Array>
          </mxGeometry>
        </mxCell>
        <mxCell id="MxOs55ggKge5NV0dwggh-79" style="edgeStyle=orthogonalEdgeStyle;rounded=0;orthogonalLoop=1;jettySize=auto;html=1;exitX=1;exitY=0.2;exitDx=0;exitDy=0;entryX=1;entryY=0.5;entryDx=0;entryDy=0;entryPerimeter=0;endArrow=none;endFill=0;" edge="1" parent="1" source="MxOs55ggKge5NV0dwggh-30" target="MxOs55ggKge5NV0dwggh-76">
          <mxGeometry relative="1" as="geometry">
            <Array as="points">
              <mxPoint x="899" y="210" />
            </Array>
          </mxGeometry>
        </mxCell>
        <mxCell id="MxOs55ggKge5NV0dwggh-84" value="220&amp;nbsp;Ω" style="text;html=1;align=center;verticalAlign=middle;resizable=0;points=[];autosize=1;strokeColor=none;fillColor=none;" vertex="1" parent="1">
          <mxGeometry x="759" y="270.03" width="60" height="30" as="geometry" />
        </mxCell>
        <mxCell id="MxOs55ggKge5NV0dwggh-85" value="RGB&lt;div&gt;LED&lt;/div&gt;" style="text;html=1;align=center;verticalAlign=middle;resizable=0;points=[];autosize=1;strokeColor=none;fillColor=none;" vertex="1" parent="1">
          <mxGeometry x="760" y="322.03" width="50" height="40" as="geometry" />
        </mxCell>
      </root>
    </mxGraphModel>
  </diagram>
</mxfile>
